<svg width="64" height="64" viewBox="0 0 64 64" fill="none" xmlns="http://www.w3.org/2000/svg">
  <path d="M12 30C12 19 21 11 32 11C43 11 52 19 52 30C52 41 43 49 32 49C28.5 49 25.2 48.1 22.4 46.5L12 49L14.8 39.8C13 37 12 33.6 12 30Z" fill="#1F9D6B" fill-opacity="0.14" stroke="#167A53" stroke-width="2.2" stroke-linejoin="round"/>
  <path d="M23 27.5C23 26.5 24 24 25.5 24C26.5 24 27 24.5 27.5 25.5C28 26.5 28.7 28 28.3 28.7C27.5 30 26.5 30 27 31.5C27.7 33.5 30 36 32.5 36.7C34 37 34 36 35.3 35.2C36 34.8 37.5 35.5 38.5 36C39.5 36.5 40 37 40 38C40 39.5 38 41 36.5 41C31.5 41 23 36.5 23 27.5Z" fill="#167A53"/>
</svg>
