<svg width="64" height="64" viewBox="0 0 64 64" fill="none" xmlns="http://www.w3.org/2000/svg">
  <path d="M31 20C31 20 26 8 16 10C8 12 9 24 18 28C24 30.5 31 28 31 28V20Z" fill="#6C4FA1" fill-opacity="0.85" stroke="#523B7D" stroke-width="1.8" stroke-linejoin="round"/>
  <path d="M31 30C31 30 24 32 20 38C15 45 22 52 29 48C32 46 33 38 33 38" fill="#6C4FA1" fill-opacity="0.6" stroke="#523B7D" stroke-width="1.8" stroke-linejoin="round"/>
  <path d="M33 20C33 20 38 8 48 10C56 12 55 24 46 28C40 30.5 33 28 33 28V20Z" fill="#6C4FA1" fill-opacity="0.85" stroke="#523B7D" stroke-width="1.8" stroke-linejoin="round"/>
  <path d="M33 30C33 30 40 32 44 38C49 45 42 52 35 48C32 46 31 38 31 38" fill="#6C4FA1" fill-opacity="0.6" stroke="#523B7D" stroke-width="1.8" stroke-linejoin="round"/>
  <rect x="30.5" y="14" width="3" height="34" rx="1.5" fill="#3A2E22"/>
</svg>
